<svg width="756" height="272" viewBox="0 0 756 272" fill="none" xmlns="http://www.w3.org/2000/svg">
<path d="M179.119 265.829C187.146 264.855 191.454 267.795 197.912 266.786C210.753 265.717 224.853 260.131 237.26 260.131C246.248 260.131 256.332 261.545 264.98 258.991C286.526 252.629 309.299 253.915 331.343 249.875C363.365 244.006 394.387 240.072 426.013 231.869C459.992 223.056 493.871 214.259 527.613 204.519C571.078 191.973 617.063 181.623 658.577 163.722C690.29 150.047 734.416 131.88 748.666 98.082C756.493 79.5209 743.344 40.4133 728.346 28.3394C704.133 8.8454 668.503 9.96622 639.079 7.37105C601.961 4.09718 568.058 3.87683 531.019 8.8525C502.346 12.7043 473.331 12.6497 444.571 16.0319C412.141 19.8457 381.102 29.9568 348.961 35.2909L347.72 35.4968C280.054 46.7265 212.371 57.9588 145.526 73.9228C113.392 81.5973 79.0083 92.7549 48.5073 105.375C28.0372 113.845 16.0471 128.839 7.86726 148.68C-1.2897 170.89 13.0009 195.141 29.3618 211.015C42.6161 223.874 57.3723 235.525 73.8779 244.177C91.6153 253.474 110.481 256.461 129.435 262.182C145.058 266.898 162.847 267.802 179.119 265.829Z" fill="#0E649B"/>
<path d="M201.593 265.829C192.868 268.964 188.572 264.682 179.119 265.829C162.847 267.802 145.058 266.898 129.435 262.182C110.481 256.461 91.6153 253.474 73.8779 244.177C57.3723 235.525 42.6161 223.874 29.3618 211.015C13.0009 195.141 -1.2897 170.89 7.86726 148.68C16.0471 128.839 28.0372 113.845 48.5073 105.375C79.0083 92.7549 113.392 81.5973 145.526 73.9228C212.78 57.8612 280.881 46.5893 348.961 35.2909C381.102 29.9568 412.141 19.8457 444.571 16.0319C473.331 12.6497 502.346 12.7043 531.019 8.8525C568.058 3.87683 601.961 4.09718 639.079 7.37104C668.503 9.96622 704.133 8.8454 728.346 28.3394C743.344 40.4133 756.493 79.5209 748.666 98.082C734.416 131.88 690.29 150.047 658.577 163.722C617.063 181.623 571.078 191.973 527.613 204.519C493.871 214.259 459.992 223.056 426.013 231.869C394.387 240.072 363.365 244.006 331.343 249.875C309.299 253.915 286.526 252.629 264.98 258.991C256.332 261.545 246.248 260.131 237.26 260.131C223.54 260.131 207.751 266.961 193.882 266.961" stroke="black" stroke-width="10" stroke-linecap="round"/>
<path d="M254.96 133.127C256.251 133.288 257.284 133.771 258.058 134.574C258.833 135.377 259.302 136.235 259.466 137.148C259.698 138.441 259.437 139.627 258.684 140.704C257.917 141.705 256.884 142.322 255.585 142.555C255.203 142.623 254.891 142.64 254.648 142.605C252.962 142.436 251.41 142.361 249.994 142.379C248.564 142.321 247.2 142.409 245.901 142.642C244.755 142.847 243.629 143.167 242.524 143.6C241.419 144.034 240.251 144.557 239.02 145.171L238.926 145.305C240.468 147.306 242.382 148.965 244.668 150.282C246.955 151.6 249.324 152.942 251.777 154.308C254.217 155.598 256.562 157.023 258.813 158.582C261.14 160.128 262.988 162.074 264.354 164.42C264.914 165.34 265.289 166.333 265.48 167.398C265.766 168.995 265.76 170.724 265.463 172.583C265.165 174.442 264.535 176.204 263.571 177.868C262.684 179.519 261.406 180.965 259.735 182.207C258.079 183.524 255.99 184.409 253.469 184.861C250.642 185.368 247.962 185.377 245.43 184.889C242.988 184.463 240.758 183.685 238.742 182.554L236.319 181.575L235.103 180.733C233.78 179.95 232.951 178.842 232.615 177.411L232.492 176.726C232.463 175.24 232.775 174.124 233.43 173.378C234.148 172.543 235.066 171.946 236.185 171.589C237.713 171.315 239.27 171.86 240.855 173.225L243.871 174.215C245.05 174.632 246.344 175.028 247.752 175.404C249.236 175.766 250.628 175.831 251.927 175.598C252.996 175.406 253.973 174.917 254.857 174.13L255.443 173.437C255.549 172.711 255.618 171.992 255.648 171.28C255.754 170.554 255.753 169.887 255.644 169.279C255.439 168.138 255.001 167.235 254.33 166.57C253.722 165.815 252.943 165.209 251.993 164.751C251.106 164.203 250.157 163.745 249.145 163.377C248.119 162.933 247.086 162.451 246.046 161.93C245.097 161.472 243.742 160.734 241.982 159.715C240.285 158.606 238.522 157.351 236.694 155.952C234.866 154.552 233.215 153.042 231.742 151.422C230.331 149.712 229.483 148.058 229.197 146.46C228.856 144.559 229.142 142.858 230.057 141.36C230.957 139.785 232.18 138.467 233.725 137.405C235.256 136.267 236.911 135.381 238.69 134.748C240.455 134.039 241.988 133.568 243.287 133.335C245.426 132.952 247.363 132.762 249.099 132.765C250.911 132.754 252.864 132.875 254.96 133.127Z" fill="white"/>
<path d="M276.78 134.751C275.492 133.726 274.746 132.643 274.542 131.502C274.31 130.208 274.494 129.037 275.095 127.987C275.771 126.924 276.759 126.276 278.058 126.043C279.051 125.865 280.099 125.991 281.202 126.421C282.29 126.776 283.33 127.296 284.32 127.982C285.297 128.592 286.159 129.223 286.907 129.874C287.655 130.525 288.132 130.989 288.339 131.266C288.479 131.163 288.816 131.063 289.35 130.967C290.802 130.707 292.246 130.841 293.681 131.369C295.179 131.807 296.565 132.501 297.839 133.45C299.19 134.386 300.401 135.425 301.474 136.567C302.546 137.71 303.49 138.797 304.306 139.828C305.121 140.86 305.881 142.019 306.585 143.306C307.352 144.503 308.011 145.759 308.562 147.074C309.113 148.388 309.581 149.679 309.965 150.944C310.35 152.21 310.638 153.376 310.828 154.441C311.388 157.559 311.492 160.564 311.143 163.453C310.856 166.252 309.98 168.843 308.514 171.226C307.125 173.595 305.081 175.61 302.382 177.271C299.697 179.009 296.253 180.254 292.051 181.008C288.994 181.555 286.309 181.094 283.995 179.625C281.758 178.142 279.886 176.279 278.38 174.036C276.861 171.717 275.64 169.306 274.718 166.802C273.872 164.284 273.306 162.226 273.02 160.629C272.747 159.107 272.672 157.59 272.795 156.076C272.918 154.562 273.176 153.142 273.569 151.815C273.949 150.412 274.355 149.162 274.789 148.063C275.3 146.951 275.799 145.998 276.288 145.204L280.812 137.444C280.681 137.154 280.352 136.859 279.825 136.561C279.361 136.173 278.904 135.823 278.454 135.511L276.78 134.751ZM289.665 139.979L289.329 140.746C288.617 142.052 287.796 143.416 286.869 144.838C286.017 146.247 285.211 147.687 284.449 149.158C283.688 150.63 283.099 152.187 282.684 153.832C282.269 155.477 282.226 157.212 282.553 159.038C282.853 160.711 283.267 162.364 283.797 163.997C284.389 165.539 285.03 166.916 285.72 168.127C286.487 169.325 287.327 170.273 288.241 170.973C289.141 171.597 290.088 171.82 291.081 171.642C291.922 171.491 292.749 171.264 293.562 170.962C294.452 170.645 295.227 170.349 295.887 170.074L299.645 167.28C299.819 166.935 300.133 166.486 300.586 165.934C301.026 165.305 301.35 164.698 301.561 164.11C301.798 161.477 301.699 158.943 301.263 156.508C300.69 153.314 299.61 150.367 298.022 147.668C296.42 144.893 294.294 142.486 291.642 140.449L290.144 140.011L290.029 140.032C289.876 140.059 289.755 140.042 289.665 139.979Z" fill="white"/>
<path d="M354.514 118.345C354.659 118.711 354.758 119.047 354.813 119.351C354.93 119.566 355.016 119.825 355.07 120.129C355.289 121.347 355.028 122.532 354.288 123.685C353.625 124.825 352.644 125.511 351.345 125.744C350.657 125.867 350.102 125.849 349.679 125.689C349.333 125.515 348.934 125.273 348.484 124.961C348.11 124.635 347.608 124.254 346.978 123.818C346.424 123.367 345.596 122.927 344.494 122.496L342.308 122.181C341.26 122.055 340.125 122.102 338.902 122.321C336.457 122.759 334.427 123.751 332.812 125.297C331.182 126.767 329.882 128.531 328.91 130.589C328.015 132.634 327.421 134.821 327.129 137.151C326.913 139.466 326.989 141.651 327.358 143.705C327.767 145.987 328.492 148.055 329.534 149.91C330.639 151.675 332.009 153.157 333.643 154.355C335.341 155.464 337.257 156.259 339.394 156.74C341.607 157.207 343.974 157.215 346.495 156.763C348.024 156.489 349.518 156.025 350.978 155.37C352.437 154.716 353.69 153.785 354.735 152.577L354.997 152.059C355.669 150.525 356.807 149.615 358.411 149.327C359.023 149.217 359.769 149.201 360.65 149.279L361.15 149.425C362.986 150.431 364.027 151.618 364.272 152.987C364.572 154.661 364.182 156.223 363.101 157.673C362.02 159.123 360.638 160.43 358.954 161.596C357.257 162.685 355.411 163.605 353.416 164.355C351.498 165.091 349.851 165.583 348.476 165.829C344.808 166.487 341.306 166.526 337.969 165.946C334.618 165.291 331.567 164.11 328.817 162.405C326.129 160.609 323.818 158.276 321.884 155.403C320.026 152.517 318.742 149.096 318.033 145.141C317.392 141.565 317.383 137.994 318.006 134.428C318.628 130.862 319.816 127.587 321.568 124.604C323.306 121.544 325.561 118.941 328.331 116.796C331.177 114.637 334.51 113.215 338.33 112.53C341.081 112.037 343.833 112.212 346.586 113.053C349.402 113.804 352.045 115.568 354.514 118.345Z" fill="white"/>
<path d="M382.411 127.477C382.48 125.659 382.963 124.395 383.861 123.684C384.745 122.897 385.837 122.388 387.136 122.155C388.232 122.115 389.252 122.521 390.193 123.373C391.134 124.225 391.734 125.374 391.994 126.819C392.372 129.814 392.697 132.503 392.967 134.889C393.223 137.199 393.511 139.463 393.83 141.683C394.149 143.903 394.488 146.237 394.848 148.684C395.271 151.043 395.762 153.781 396.321 156.9C396.553 158.193 396.247 159.347 395.403 160.362C394.574 161.453 393.624 162.094 392.554 162.286C391.485 162.478 390.385 162.282 389.255 161.7C388.126 161.117 387.341 160.041 386.902 158.471C385.825 152.461 385.019 147.306 384.485 143.005L382.411 127.477ZM374.497 111.701C373.512 111.485 372.646 111.051 371.898 110.4C371.213 109.659 370.796 108.87 370.646 108.034C370.441 106.892 370.626 105.721 371.199 104.519C371.849 103.303 373.052 102.538 374.809 102.223C377.093 102.206 379.158 102.504 381.002 103.115C382.847 103.727 384.668 103.989 386.466 103.902C387.91 104.036 389.026 104.543 389.814 105.422C390.589 106.225 391.058 107.084 391.222 107.996C391.413 109.061 391.177 110.164 390.514 111.303C389.927 112.429 388.984 113.108 387.685 113.341C386.539 113.547 385.404 113.593 384.279 113.481C383.232 113.354 382.17 113.152 381.095 112.874C380.02 112.595 378.952 112.355 377.89 112.153C376.815 111.874 375.684 111.724 374.497 111.701Z" fill="white"/>
<path d="M441.708 132.277L440.885 132.306C439.698 132.284 438.56 132.095 437.471 131.74C436.459 131.372 435.447 131.004 434.434 130.636C433.422 130.268 432.462 129.969 431.553 129.739C430.631 129.433 429.749 129.356 428.909 129.507C426.289 130.29 424.122 131.621 422.409 133.498C420.771 135.362 420.143 137.359 420.525 139.489C420.634 140.097 420.903 140.717 421.331 141.347C421.76 141.976 422.413 142.762 423.292 143.704C425.496 144.565 427.783 144.783 430.152 144.359C432.902 143.866 435.261 143.168 437.229 142.266L438.453 140.515C439.04 139.389 439.982 138.71 441.281 138.477L441.854 138.374C441.822 137.752 441.789 137.13 441.756 136.508C441.724 135.885 441.729 135.256 441.773 134.62L441.708 132.277ZM445.902 145.775L443.716 148.758C442.886 149.849 441.397 150.783 439.25 151.561C437.192 152.401 434.979 153.033 432.61 153.457C429.401 154.033 426.589 154.183 424.175 153.91C421.836 153.622 419.649 152.64 417.614 150.964C414.209 147.805 412.22 144.629 411.647 141.434C411.265 139.304 411.31 137.136 411.783 134.932C412.318 132.637 413.238 130.51 414.542 128.549C415.847 126.587 417.55 124.869 419.651 123.393C421.829 121.903 424.369 120.898 427.273 120.378C428.522 120.311 429.754 120.365 430.969 120.54C432.183 120.715 433.328 120.942 434.403 121.22C435.478 121.498 436.438 121.797 437.284 122.117C438.193 122.346 438.897 122.534 439.396 122.68L438.156 119.723C437.556 118.574 436.886 117.477 436.147 116.432C435.394 115.311 434.533 114.248 433.564 113.244L430.904 111.601C430.266 111.558 429.658 111.471 429.083 111.338C428.493 111.13 427.778 111.101 426.938 111.252C424.749 111.801 422.626 112.496 420.569 113.336C418.498 114.099 416.461 115.053 414.458 116.198C414.242 116.315 413.905 116.414 413.447 116.497C411.842 116.784 410.5 116.554 409.419 115.805C408.415 115.043 407.817 114.129 407.627 113.064C407.463 112.152 407.549 111.312 407.885 110.545C408.207 109.702 408.949 108.784 410.112 107.79C411.989 106.826 414.051 105.789 416.297 104.68C418.605 103.481 420.982 102.662 423.427 102.224C427.629 101.471 431.256 101.684 434.306 102.865C437.433 104.032 440.045 105.84 442.14 108.291C444.298 110.653 445.976 113.414 447.174 116.575C448.448 119.723 449.371 122.895 449.944 126.089C450.285 127.991 450.576 130.059 450.819 132.292C451.124 134.436 451.218 136.5 451.101 138.484C451.046 140.378 450.746 142.002 450.2 143.356C449.654 144.71 448.731 145.504 447.432 145.736C447.127 145.791 446.821 145.846 446.516 145.901C446.196 145.88 445.992 145.838 445.902 145.775Z" fill="white"/>
<path d="M459.539 79.9694C459.689 78.6077 460.078 77.4781 460.706 76.5804C461.41 75.6691 462.297 75.1175 463.366 74.9258C465.659 74.5149 467.509 75.5966 468.916 78.1708C469.939 83.8761 470.869 89.284 471.706 94.3944C472.53 99.4288 473.344 104.19 474.148 108.678C475.512 116.285 477.449 124.457 479.962 133.193C480.69 133.298 481.578 133.413 482.626 133.54C483.737 133.576 484.798 133.778 485.811 134.147C486.886 134.425 487.797 134.89 488.545 135.541C489.369 136.178 489.883 137.068 490.087 138.209C490.292 139.35 490.011 140.421 489.244 141.422C488.567 142.485 487.617 143.127 486.395 143.346C485.554 143.496 484.597 143.433 483.522 143.154C480.616 142.34 478.396 141.835 476.862 141.639C475.391 141.353 474.22 140.974 473.346 140.503C472.536 139.941 471.893 138.997 471.419 137.668C470.931 136.264 470.292 134.023 469.504 130.945C468.465 128.226 467.645 125.194 467.045 121.846C466.445 118.499 465.866 115.266 465.307 112.147L459.539 79.9694Z" fill="white"/>
<path d="M519.477 85.7139C520.768 85.8751 521.801 86.3573 522.576 87.1606C523.351 87.9639 523.82 88.822 523.984 89.7348C524.215 91.028 523.955 92.2132 523.201 93.2904C522.434 94.2916 521.402 94.9085 520.103 95.1413C519.721 95.2098 519.408 95.2266 519.165 95.1916C517.479 95.0228 515.928 94.9475 514.512 94.9658C513.082 94.908 511.717 94.9956 510.418 95.2284C509.272 95.4338 508.147 95.7534 507.042 96.187C505.936 96.6206 504.768 97.1441 503.538 97.7572L503.443 97.8919C504.985 99.8925 506.899 101.552 509.186 102.869C511.472 104.187 513.842 105.528 516.295 106.894C518.734 108.185 521.079 109.609 523.33 111.169C525.658 112.714 527.505 114.66 528.872 117.006C529.431 117.927 529.806 118.919 529.997 119.984C530.283 121.582 530.278 123.31 529.98 125.169C529.683 127.029 529.052 128.79 528.089 130.455C527.202 132.106 525.923 133.552 524.253 134.793C522.596 136.111 520.507 136.996 517.986 137.448C515.159 137.954 512.479 137.964 509.947 137.475C507.505 137.049 505.276 136.271 503.259 135.141L500.836 134.162L499.621 133.32C498.297 132.536 497.468 131.429 497.133 129.997L497.01 129.313C496.98 127.826 497.293 126.71 497.947 125.965C498.665 125.129 499.584 124.533 500.702 124.175C502.23 123.901 503.787 124.447 505.372 125.811L508.389 126.802C509.568 127.219 510.861 127.615 512.269 127.991C513.753 128.353 515.145 128.417 516.444 128.185C517.514 127.993 518.491 127.504 519.375 126.717L519.96 126.023C520.067 125.298 520.135 124.579 520.165 123.867C520.272 123.141 520.27 122.474 520.161 121.865C519.957 120.724 519.519 119.821 518.848 119.156C518.239 118.402 517.46 117.795 516.511 117.338C515.624 116.79 514.674 116.332 513.662 115.964C512.636 115.52 511.603 115.037 510.564 114.517C509.614 114.059 508.259 113.32 506.499 112.301C504.802 111.192 503.04 109.938 501.212 108.538C499.383 107.138 497.733 105.629 496.259 104.008C494.849 102.298 494 100.644 493.714 99.047C493.373 97.1452 493.66 95.445 494.574 93.9464C495.475 92.3716 496.697 91.0533 498.242 89.9913C499.773 88.8532 501.428 87.9677 503.207 87.3347C504.973 86.6257 506.505 86.1547 507.804 85.9219C509.943 85.5384 511.881 85.3482 513.616 85.3512C515.428 85.3405 517.382 85.4614 519.477 85.7139Z" fill="white"/>
</svg>
